<svg xmlns="http://www.w3.org/2000/svg" viewBox="0 0 32 32" role="img" aria-hidden="true">
  <g fill="#1a2f4a">
    <circle cx="20.575" cy="16.162" r="0.56"/>
    <circle cx="18.917" cy="19.548" r="0.58"/>
    <circle cx="15.523" cy="20.422" r="0.56"/>
    <circle cx="12.335" cy="19.017" r="0.73"/>
    <circle cx="11.543" cy="15.432" r="0.69"/>
    <circle cx="13.245" cy="12.291" r="0.55"/>
    <circle cx="16.354" cy="11.195" r="0.71"/>
    <circle cx="19.510" cy="13.302" r="0.62"/>
    <circle cx="23.355" cy="17.724" r="0.89"/>
    <circle cx="21.279" cy="21.866" r="0.98"/>
    <circle cx="17.597" cy="23.415" r="0.86"/>
    <circle cx="13.359" cy="23.293" r="0.89"/>
    <circle cx="10.123" cy="21.337" r="1.00"/>
    <circle cx="8.335" cy="17.888" r="0.96"/>
    <circle cx="8.542" cy="13.133" r="0.96"/>
    <circle cx="10.988" cy="9.851" r="0.77"/>
    <circle cx="14.271" cy="8.207" r="0.86"/>
    <circle cx="18.080" cy="8.502" r="0.91"/>
    <circle cx="21.733" cy="10.524" r="0.81"/>
    <circle cx="23.762" cy="14.398" r="0.98"/>
    <circle cx="25.127" cy="21.443" r="1.22"/>
    <circle cx="22.337" cy="25.044" r="1.33"/>
    <circle cx="18.440" cy="26.719" r="1.32"/>
    <circle cx="14.575" cy="26.769" r="1.31"/>
    <circle cx="10.324" cy="24.976" r="1.20"/>
    <circle cx="7.332" cy="22.758" r="0.98"/>
    <circle cx="5.697" cy="19.109" r="1.29"/>
    <circle cx="6.587" cy="10.925" r="1.33"/>
    <circle cx="9.423" cy="7.748" r="1.02"/>
    <circle cx="13.638" cy="5.294" r="1.22"/>
    <circle cx="17.114" cy="5.412" r="1.01"/>
    <circle cx="21.891" cy="6.902" r="1.23"/>
    <circle cx="24.950" cy="10.326" r="1.32"/>
    <circle cx="26.458" cy="13.310" r="1.13"/>
    <circle cx="26.799" cy="17.370" r="0.97"/>
    <circle cx="24.518" cy="26.497" r="1.38"/>
    <circle cx="20.442" cy="28.631" r="1.22"/>
    <circle cx="17.988" cy="29.640" r="1.52"/>
    <circle cx="13.267" cy="29.100" r="1.33"/>
    <circle cx="9.752" cy="27.870" r="1.36"/>
    <circle cx="6.393" cy="25.660" r="1.38"/>
    <circle cx="3.003" cy="20.630" r="1.58"/>
    <circle cx="2.602" cy="17.577" r="1.27"/>
    <circle cx="2.711" cy="13.947" r="1.34"/>
    <circle cx="4.097" cy="9.353" r="1.25"/>
    <circle cx="7.630" cy="5.584" r="1.62"/>
    <circle cx="10.013" cy="4.060" r="1.39"/>
    <circle cx="15.440" cy="2.391" r="1.43"/>
    <circle cx="19.276" cy="2.610" r="1.56"/>
    <circle cx="22.570" cy="4.049" r="1.61"/>
    <circle cx="25.710" cy="6.717" r="1.42"/>
    <circle cx="28.744" cy="10.758" r="1.26"/>
    <circle cx="29.476" cy="15.065" r="1.28"/>
    <circle cx="29.137" cy="19.413" r="1.57"/>
    <circle cx="27.349" cy="23.449" r="1.33"/>
  </g>
  <g fill="none" stroke="#a44322" stroke-linecap="butt">
    <path d="M 20.322 16.567 A 0.477 0.477 0 0 1 20.351 15.741" stroke-width="0.168"/>
    <path d="M 18.431 19.629 A 0.493 0.493 0 0 1 19.090 19.087" stroke-width="0.174"/>
    <path d="M 15.137 20.139 A 0.479 0.479 0 0 1 15.961 20.228" stroke-width="0.169"/>
    <path d="M 12.233 18.405 A 0.620 0.620 0 0 1 12.915 19.234" stroke-width="0.219"/>
    <path d="M 11.896 14.968 A 0.583 0.583 0 0 1 11.768 15.970" stroke-width="0.206"/>
    <path d="M 13.708 12.238 A 0.466 0.466 0 0 1 13.060 12.719" stroke-width="0.165"/>
    <path d="M 16.850 11.532 A 0.600 0.600 0 0 1 15.813 11.456" stroke-width="0.212"/>
    <path d="M 19.580 13.827 A 0.529 0.529 0 0 1 19.021 13.100" stroke-width="0.187"/>
    <path d="M 22.835 18.278 A 0.760 0.760 0 0 1 23.135 16.996" stroke-width="0.268"/>
    <path d="M 20.462 22.039 A 0.835 0.835 0 0 1 21.537 21.071" stroke-width="0.295"/>
    <path d="M 16.899 23.191 A 0.734 0.734 0 0 1 18.141 22.923" stroke-width="0.259"/>
    <path d="M 12.872 22.715 A 0.756 0.756 0 0 1 14.104 23.161" stroke-width="0.267"/>
    <path d="M 9.943 20.504 A 0.852 0.852 0 0 1 10.935 21.596" stroke-width="0.301"/>
    <path d="M 8.561 17.106 A 0.814 0.814 0 0 1 8.898 18.475" stroke-width="0.287"/>
    <path d="M 9.177 12.619 A 0.817 0.817 0 0 1 8.669 13.940" stroke-width="0.288"/>
    <path d="M 11.637 9.746 A 0.657 0.657 0 0 1 10.755 10.465" stroke-width="0.232"/>
    <path d="M 14.964 8.425 A 0.727 0.727 0 0 1 13.735 8.698" stroke-width="0.257"/>
    <path d="M 18.625 9.056 A 0.778 0.778 0 0 1 17.327 8.696" stroke-width="0.274"/>
    <path d="M 21.895 11.190 A 0.685 0.685 0 0 1 21.076 10.332" stroke-width="0.242"/>
    <path d="M 23.500 15.187 A 0.831 0.831 0 0 1 23.209 13.777" stroke-width="0.293"/>
    <path d="M 24.222 21.949 A 1.037 1.037 0 0 1 25.142 20.406" stroke-width="0.366"/>
    <path d="M 21.210 25.143 A 1.131 1.131 0 0 1 22.814 24.019" stroke-width="0.399"/>
    <path d="M 17.371 26.389 A 1.118 1.118 0 0 1 19.260 25.959" stroke-width="0.395"/>
    <path d="M 13.690 26.089 A 1.116 1.116 0 0 1 15.607 26.342" stroke-width="0.394"/>
    <path d="M 9.851 24.075 A 1.018 1.018 0 0 1 11.342 25.017" stroke-width="0.359"/>
    <path d="M 7.217 21.929 A 0.836 0.836 0 0 1 8.108 23.072" stroke-width="0.295"/>
    <path d="M 5.948 18.039 A 1.099 1.099 0 0 1 6.498 19.861" stroke-width="0.388"/>
    <path d="M 7.550 10.331 A 1.132 1.132 0 0 1 6.620 12.057" stroke-width="0.399"/>
    <path d="M 10.283 7.619 A 0.871 0.871 0 0 1 9.104 8.558" stroke-width="0.307"/>
    <path d="M 14.626 5.606 A 1.037 1.037 0 0 1 12.873 5.993" stroke-width="0.366"/>
    <path d="M 17.811 5.918 A 0.861 0.861 0 0 1 16.328 5.762" stroke-width="0.304"/>
    <path d="M 22.368 7.836 A 1.049 1.049 0 0 1 20.843 6.848" stroke-width="0.370"/>
    <path d="M 24.997 11.448 A 1.123 1.123 0 0 1 23.955 9.805" stroke-width="0.396"/>
    <path d="M 26.201 14.233 A 0.958 0.958 0 0 1 25.788 12.626" stroke-width="0.338"/>
    <path d="M 26.300 18.027 A 0.825 0.825 0 0 1 26.480 16.610" stroke-width="0.291"/>
    <path d="M 23.362 26.681 A 1.171 1.171 0 0 1 24.936 25.404" stroke-width="0.413"/>
    <path d="M 19.421 28.440 A 1.039 1.039 0 0 1 21.118 27.843" stroke-width="0.367"/>
    <path d="M 16.787 29.161 A 1.293 1.293 0 0 1 19.003 28.838" stroke-width="0.456"/>
    <path d="M 12.426 28.349 A 1.127 1.127 0 0 1 14.338 28.748" stroke-width="0.398"/>
    <path d="M 9.135 26.892 A 1.157 1.157 0 0 1 10.908 27.825" stroke-width="0.408"/>
    <path d="M 6.086 24.524 A 1.176 1.176 0 0 1 7.530 25.961" stroke-width="0.415"/>
    <path d="M 3.245 19.309 A 1.343 1.343 0 0 1 4.026 21.501" stroke-width="0.474"/>
    <path d="M 3.028 16.588 A 1.077 1.077 0 0 1 3.246 18.441" stroke-width="0.380"/>
    <path d="M 3.427 13.056 A 1.143 1.143 0 0 1 3.124 15.013" stroke-width="0.403"/>
    <path d="M 5.010 8.809 A 1.062 1.062 0 0 1 4.113 10.415" stroke-width="0.375"/>
    <path d="M 8.988 5.375 A 1.374 1.374 0 0 1 7.133 6.866" stroke-width="0.485"/>
    <path d="M 11.193 4.129 A 1.181 1.181 0 0 1 9.363 5.046" stroke-width="0.417"/>
    <path d="M 16.518 2.955 A 1.217 1.217 0 0 1 14.412 3.042" stroke-width="0.429"/>
    <path d="M 20.235 3.528 A 1.328 1.328 0 0 1 18.001 2.981" stroke-width="0.469"/>
    <path d="M 23.277 5.216 A 1.365 1.365 0 0 1 21.205 4.077" stroke-width="0.482"/>
    <path d="M 25.997 7.893 A 1.210 1.210 0 0 1 24.548 6.378" stroke-width="0.427"/>
    <path d="M 28.602 11.816 A 1.067 1.067 0 0 1 27.899 10.106" stroke-width="0.377"/>
    <path d="M 28.999 16.043 A 1.088 1.088 0 0 1 28.868 14.163" stroke-width="0.384"/>
    <path d="M 28.198 20.367 A 1.338 1.338 0 0 1 28.781 18.124" stroke-width="0.472"/>
    <path d="M 26.339 23.958 A 1.131 1.131 0 0 1 27.414 22.320" stroke-width="0.399"/>
  </g>
</svg>
